<?xml version="1.0" encoding="UTF-8"?><svg id="Layer_2" xmlns="http://www.w3.org/2000/svg" xmlns:xlink="http://www.w3.org/1999/xlink" viewBox="0 0 819.14 821.45"><defs><linearGradient id="linear-gradient" x1="488.76" y1="590.4" x2="389.54" y2="721.69" gradientTransform="matrix(1, 0, 0, 1, 0, 0)" gradientUnits="userSpaceOnUse"><stop offset=".38" stop-color="#134a0e" stop-opacity="0"/><stop offset=".45" stop-color="#134a0e" stop-opacity=".1"/><stop offset=".81" stop-color="#134a0e" stop-opacity=".65"/><stop offset="1" stop-color="#13310e" stop-opacity=".95"/></linearGradient></defs><g id="Layer_1-2"><g><circle cx="351.12" cy="330" r="80.26" fill="none" stroke="#152d80" stroke-miterlimit="10" stroke-width="15"/><path d="M229.5,520.94l58.89-59.81c34.96-35.5,92.1-35.87,127.51-.82l56.61,56.02-123.81,123.81-119.2-119.2Z" fill="none" stroke="#152d80" stroke-miterlimit="10" stroke-width="15"/><path d="M35.34,529.13l117.17-117.17,198.72,198.77,349.12-349.12,118.78,118.78-425.06,423.52c-23.53,23.44-61.61,23.38-85.05-.15L35.34,529.13Z" fill="#00a100"/><polyline points="476.2 485.76 351.23 610.73 469.1 729.04 618.71 580.1" fill="url(#linear-gradient)"/><path d="M138.92,71.08l.67,310.94L29.68,492.82S-84.22,255,134.23,74.72" fill="#152d80"/><path d="M168.94,330s12.23-137.42,168.42-162.28L337.21,.03s-78.98-2.86-169.19,51.11l.92,278.86Z" fill="#152d80"/><path d="M563.97,71.39c.28,88.18-.24,198.6-.53,286.46l121.09-120.66c-29.35-76.99-67-121.27-116.28-162.46" fill="#152d80"/><path d="M534.51,333.64s-9.71-144.16-168.78-165.91L365.97,.03S454.12,.03,533.99,51.8l.52,281.83Z" fill="#152d80"/></g></g></svg>