<?xml version="1.0" encoding="UTF-8"?><svg id="Layer_2" xmlns="http://www.w3.org/2000/svg" viewBox="0 0 383.82 383.69"><g id="Layer_1-2"><g><path d="M175.73,0h32.94c6.28,.92,12.64,1.47,18.82,2.83,76.67,16.87,126.65,62.87,149.89,137.85,3.55,11.46,5.04,23.35,6.45,35.23v31.44c-1.08,8.15-1.99,16.32-3.72,24.37-23.21,107.77-131.19,173.75-237.94,145.39C46.2,351.61-15.62,255.12,3.45,157.57,18.72,79.49,66.36,29.37,142.32,6.13,153.19,2.81,164.49,1.5,175.73,0Zm177.41,185.48c-2.11-85.39-76.49-162.58-175.21-154.41C93.66,38.04,23.65,112.04,31.66,206.17c7.2,84.61,81.5,154.01,174.99,145.97,87.05-7.48,150.23-82.61,146.49-166.66Z"/><path d="M207.45,159.8c0,16.09,.05,32.19-.03,48.28-.04,7.85-5.66,14.05-13.41,15.09-7.16,.96-14.21-3.66-16.49-10.75-.55-1.71-.58-3.43-.59-5.18,0-31.69-.02-63.37,0-95.06,0-9.41,6.22-15.92,15.1-15.97,9.09-.05,15.37,6.45,15.39,16.06,.03,15.84,0,31.69,0,47.53Z"/><path d="M212.68,261.42c-.02,11.47-8.91,20.37-20.39,20.42-11.64,.05-20.61-8.92-20.59-20.59,.02-11.4,9.01-20.44,20.39-20.47,11.57-.04,20.61,9.03,20.59,20.65Z"/></g></g></svg>